<?xml version="1.0" encoding="UTF-8" standalone="no"?>
<!DOCTYPE svg PUBLIC "-//W3C//DTD SVG 1.1//EN"
 "http://www.w3.org/Graphics/SVG/1.1/DTD/svg11.dtd">
<!-- Generated by graphviz version 2.44.1 (20200629.0846)
 -->
<!-- Title: g Pages: 1 -->
<svg width="1090pt" height="1611pt"
 viewBox="0.00 0.00 1090.00 1611.20" xmlns="http://www.w3.org/2000/svg" xmlns:xlink="http://www.w3.org/1999/xlink">
<g id="graph0" class="graph" transform="scale(1 1) rotate(0) translate(4 1607.2)">
<title>g</title>
<polygon fill="white" stroke="transparent" points="-4,4 -4,-1607.2 1086,-1607.2 1086,4 -4,4"/>
<g id="clust1" class="cluster">
<title>cluster_104069929</title>
<polygon fill="#ececec" stroke="black" points="8,-8 8,-218.8 218,-218.8 218,-8 8,-8"/>
<text text-anchor="middle" x="33.5" y="-202.2" font-family="Times New Roman,serif" font-size="14.00">model</text>
</g>
<g id="clust3" class="cluster">
<title>cluster_1322970774</title>
<polygon fill="#ececec" stroke="black" points="288,-1247.6 288,-1595.2 646,-1595.2 646,-1247.6 288,-1247.6"/>
<text text-anchor="middle" x="319.71" y="-1578.6" font-family="Times New Roman,serif" font-size="14.00">example</text>
</g>
<g id="clust4" class="cluster">
<title>cluster_2005259558</title>
<polygon fill="#d8d8d8" stroke="black" points="296,-1255.6 296,-1562.4 638,-1562.4 638,-1255.6 296,-1255.6"/>
<text text-anchor="middle" x="328.1" y="-1545.8" font-family="Times New Roman,serif" font-size="14.00">observer</text>
</g>
<g id="clust5" class="cluster">
<title>cluster_480026252</title>
<polygon fill="#ececec" stroke="black" points="289,-939.2 289,-1198 513,-1198 513,-939.2 289,-939.2"/>
<text text-anchor="middle" x="356.49" y="-1181.4" font-family="Times New Roman,serif" font-size="14.00">observerComponents</text>
</g>
<g id="clust2" class="cluster">
<title>cluster_1297528322</title>
<polygon fill="#ececec" stroke="black" points="205,-580.8 205,-887.6 441,-887.6 441,-580.8 205,-580.8"/>
<text text-anchor="middle" x="263.16" y="-871" font-family="Times New Roman,serif" font-size="14.00">ImageComponent</text>
</g>
<g id="clust6" class="cluster">
<title>cluster_75249391</title>
<polygon fill="#ececec" stroke="black" points="29,-318.4 29,-827.6 197,-827.6 197,-318.4 29,-318.4"/>
<text text-anchor="middle" x="92.22" y="-811" font-family="Times New Roman,serif" font-size="14.00">builderComponents</text>
</g>
<g id="clust7" class="cluster">
<title>cluster_901924444</title>
<polygon fill="#ececec" stroke="black" points="214,-270.4 214,-529.2 1074,-529.2 1074,-270.4 214,-270.4"/>
<text text-anchor="middle" x="274.11" y="-512.6" font-family="Times New Roman,serif" font-size="14.00">ClockComponents</text>
</g>
<!-- ImageText104069929 -->
<g id="node1" class="node">
<title>ImageText104069929</title>
<polygon fill="#ffffff" stroke="transparent" points="209.5,-186 16.5,-186 16.5,-16 209.5,-16 209.5,-186"/>
<text text-anchor="start" x="22" y="-168.4" font-family="Times New Roman,serif" font-size="14.00">(C)ImageText</text>
<text text-anchor="start" x="22" y="-144.4" font-family="Times New Roman,serif" font-size="14.00">&#45; &#160;&#160;panel: StackPane [0..1]</text>
<text text-anchor="start" x="21.56" y="-120.4" font-family="Times New Roman,serif" font-size="14.00">&#45; &#160;&#160;temp_view: ImageView [0..1]</text>
<text text-anchor="start" x="22" y="-96.4" font-family="Times New Roman,serif" font-size="14.00">&#45; &#160;&#160;text: Text [0..1]</text>
<text text-anchor="start" x="22" y="-72.4" font-family="Times New Roman,serif" font-size="14.00">+ addImage(image: Image)</text>
<text text-anchor="start" x="22" y="-48.4" font-family="Times New Roman,serif" font-size="14.00">+ addText(text: Text)</text>
<text text-anchor="start" x="22" y="-24.4" font-family="Times New Roman,serif" font-size="14.00">+ clearPane()</text>
<polygon fill="black" stroke="black" points="17,-161 17,-161 210,-161 210,-161 17,-161"/>
<polygon fill="black" stroke="black" points="17,-89 17,-89 210,-89 210,-89 17,-89"/>
<polygon fill="none" stroke="black" points="16.5,-16 16.5,-186 209.5,-186 209.5,-16 16.5,-16"/>
</g>
<!-- ImagePane1297528322 -->
<g id="node2" class="node">
<title>ImagePane1297528322</title>
<polygon fill="#ffffff" stroke="transparent" points="432.5,-854.8 213.5,-854.8 213.5,-588.8 432.5,-588.8 432.5,-854.8"/>
<text text-anchor="start" x="219" y="-837.2" font-family="Times New Roman,serif" font-size="14.00">(C)ImagePane</text>
<text text-anchor="start" x="219" y="-813.2" font-family="Times New Roman,serif" font-size="14.00"># &#160;&#160;color: Color [0..1]</text>
<text text-anchor="start" x="219" y="-789.2" font-family="Times New Roman,serif" font-size="14.00">&#45; &#160;&#160;count: int [1]</text>
<text text-anchor="start" x="219" y="-765.2" font-family="Times New Roman,serif" font-size="14.00"># &#160;&#160;date: LocalTime [0..1]</text>
<text text-anchor="start" x="219" y="-741.2" font-family="Times New Roman,serif" font-size="14.00">&#45; &#160;&#160;fade: FadeTransition [0..1]</text>
<text text-anchor="start" x="219" y="-717.2" font-family="Times New Roman,serif" font-size="14.00">&#45; &#160;&#160;meme: ImageText [0..1]</text>
<text text-anchor="start" x="218.73" y="-693.2" font-family="Times New Roman,serif" font-size="14.00">&#45; &#160;&#160;memeBuilder: ImageBuilder [0..1]</text>
<text text-anchor="start" x="219" y="-669.2" font-family="Times New Roman,serif" font-size="14.00">&#45; &#160;&#160;memeDirector: Director [0..1]</text>
<text text-anchor="start" x="219" y="-645.2" font-family="Times New Roman,serif" font-size="14.00"># &#160;&#160;text: String [0..1]</text>
<text text-anchor="start" x="219" y="-621.2" font-family="Times New Roman,serif" font-size="14.00">+ buildMeme(): StackPane</text>
<text text-anchor="start" x="219" y="-597.2" font-family="Times New Roman,serif" font-size="14.00">+ update()</text>
<polygon fill="black" stroke="black" points="214,-829.8 214,-829.8 433,-829.8 433,-829.8 214,-829.8"/>
<polygon fill="black" stroke="black" points="214,-637.8 214,-637.8 433,-637.8 433,-637.8 214,-637.8"/>
<polygon fill="none" stroke="black" points="213.5,-588.8 213.5,-854.8 432.5,-854.8 432.5,-588.8 213.5,-588.8"/>
</g>
<!-- ImageBuilder75249391 -->
<g id="node6" class="node">
<title>ImageBuilder75249391</title>
<polygon fill="#ffffff" stroke="transparent" points="188.5,-448.4 37.5,-448.4 37.5,-326.4 188.5,-326.4 188.5,-448.4"/>
<text text-anchor="start" x="43" y="-430.8" font-family="Times New Roman,serif" font-size="14.00">(C)ImageBuilder</text>
<text text-anchor="start" x="42.54" y="-406.8" font-family="Times New Roman,serif" font-size="14.00">&#45; &#160;&#160;fileTopic: String [0..1]</text>
<text text-anchor="start" x="43" y="-382.8" font-family="Times New Roman,serif" font-size="14.00">&#45; &#160;&#160;img: ImageText [0..1]</text>
<text text-anchor="start" x="43" y="-358.8" font-family="Times New Roman,serif" font-size="14.00">&#45; &#160;&#160;text: Text [0..1]</text>
<text text-anchor="start" x="43" y="-334.8" font-family="Times New Roman,serif" font-size="14.00">+ build(): ImageText</text>
<polygon fill="black" stroke="black" points="38,-423.4 38,-423.4 189,-423.4 189,-423.4 38,-423.4"/>
<polygon fill="black" stroke="black" points="38,-351.4 38,-351.4 189,-351.4 189,-351.4 38,-351.4"/>
<polygon fill="none" stroke="black" points="37.5,-326.4 37.5,-448.4 188.5,-448.4 188.5,-326.4 37.5,-326.4"/>
</g>
<!-- ImagePane1297528322&#45;&gt;ImageBuilder75249391 -->
<g id="edge9" class="edge">
<title>ImagePane1297528322&#45;&gt;ImageBuilder75249391</title>
<path fill="none" stroke="black" d="M239.4,-588.47C211.13,-543.72 180.69,-495.55 156.77,-457.69"/>
<polygon fill="black" stroke="black" points="159.45,-455.37 151.15,-448.79 153.53,-459.11 159.45,-455.37"/>
<text text-anchor="middle" x="262.1" y="-558.2" font-family="Times New Roman,serif" font-size="14.00">memeBuilder</text>
<text text-anchor="middle" x="262.1" y="-541.4" font-family="Times New Roman,serif" font-size="14.00">[0..1]</text>
</g>
<!-- ClockComponent901924444 -->
<g id="node7" class="node">
<title>ClockComponent901924444</title>
<polygon fill="#ffffff" stroke="transparent" points="375.5,-436.4 222.5,-436.4 222.5,-338.4 375.5,-338.4 375.5,-436.4"/>
<text text-anchor="start" x="228" y="-418.8" font-family="Times New Roman,serif" font-size="14.00">(C)ClockComponent</text>
<text text-anchor="start" x="227.77" y="-394.8" font-family="Times New Roman,serif" font-size="14.00"># &#160;&#160;date: LocalTime [0..1]</text>
<text text-anchor="start" x="228" y="-370.8" font-family="Times New Roman,serif" font-size="14.00">&#45; &#160;&#160;text: Text [0..1]</text>
<text text-anchor="start" x="228" y="-346.8" font-family="Times New Roman,serif" font-size="14.00">+ update()</text>
<polygon fill="black" stroke="black" points="223,-411.4 223,-411.4 376,-411.4 376,-411.4 223,-411.4"/>
<polygon fill="black" stroke="black" points="223,-363.4 223,-363.4 376,-363.4 376,-363.4 223,-363.4"/>
<polygon fill="none" stroke="black" points="222.5,-338.4 222.5,-436.4 375.5,-436.4 375.5,-338.4 222.5,-338.4"/>
</g>
<!-- ImagePane1297528322&#45;&gt;ClockComponent901924444 -->
<g id="edge7" class="edge">
<title>ImagePane1297528322&#45;&gt;ClockComponent901924444</title>
<path fill="none" stroke="black" d="M313.45,-588.47C309.58,-534.88 305.35,-476.39 302.48,-436.57"/>
</g>
<!-- ClockPaint901924444 -->
<g id="node8" class="node">
<title>ClockPaint901924444</title>
<polygon fill="#ffffff" stroke="transparent" points="1066,-496.4 394,-496.4 394,-278.4 1066,-278.4 1066,-496.4"/>
<text text-anchor="start" x="399" y="-478.8" font-family="Times New Roman,serif" font-size="14.00">(C)ClockPaint</text>
<text text-anchor="start" x="399" y="-454.8" font-family="Times New Roman,serif" font-size="14.00"># &#160;&#160;canvas: Canvas [0..1]</text>
<text text-anchor="start" x="399" y="-430.8" font-family="Times New Roman,serif" font-size="14.00"># &#160;&#160;gc: GraphicsContext [0..1]</text>
<text text-anchor="start" x="399" y="-406.8" font-family="Times New Roman,serif" font-size="14.00">&#45; &#160;&#160;height: double [1]</text>
<text text-anchor="start" x="399" y="-382.8" font-family="Times New Roman,serif" font-size="14.00">&#45; &#160;&#160;panel: StackPane [0..1]</text>
<text text-anchor="start" x="399" y="-358.8" font-family="Times New Roman,serif" font-size="14.00">&#45; &#160;&#160;width: double [1]</text>
<text text-anchor="start" x="399" y="-334.8" font-family="Times New Roman,serif" font-size="14.00">&#45; drawClock(gc: GraphicsContext)</text>
<text text-anchor="start" x="398.96" y="-310.8" font-family="Times New Roman,serif" font-size="14.00">&#45; drawHand(gc: GraphicsContext, centerX: double, centerY: double, angle: double, handLength: double, color: Color)</text>
<text text-anchor="start" x="399" y="-286.8" font-family="Times New Roman,serif" font-size="14.00">+ update()</text>
<polygon fill="black" stroke="black" points="394,-471.4 394,-471.4 1066,-471.4 1066,-471.4 394,-471.4"/>
<polygon fill="black" stroke="black" points="394,-351.4 394,-351.4 1066,-351.4 1066,-351.4 394,-351.4"/>
<polygon fill="none" stroke="black" points="394,-278.4 394,-496.4 1066,-496.4 1066,-278.4 394,-278.4"/>
</g>
<!-- ImagePane1297528322&#45;&gt;ClockPaint901924444 -->
<g id="edge8" class="edge">
<title>ImagePane1297528322&#45;&gt;ClockPaint901924444</title>
<path fill="none" stroke="black" d="M432.6,-631.29C483.46,-589.75 544.34,-540.03 597.73,-496.43"/>
</g>
<!-- HelloController2039717799 -->
<g id="node3" class="node">
<title>HelloController2039717799</title>
<polygon fill="#ffffff" stroke="transparent" points="629.5,-1529.6 304.5,-1529.6 304.5,-1263.6 629.5,-1263.6 629.5,-1529.6"/>
<text text-anchor="start" x="310" y="-1512" font-family="Times New Roman,serif" font-size="14.00">(C)HelloController</text>
<text text-anchor="start" x="310" y="-1488" font-family="Times New Roman,serif" font-size="14.00">+ &#160;&#160;ImagePane: StackPane [0..1]</text>
<text text-anchor="start" x="310" y="-1464" font-family="Times New Roman,serif" font-size="14.00">+ &#160;&#160;MediaPage: BorderPane [0..1]</text>
<text text-anchor="start" x="310" y="-1440" font-family="Times New Roman,serif" font-size="14.00">+ &#160;&#160;TimerText: BorderPane [0..1]</text>
<text text-anchor="start" x="310" y="-1416" font-family="Times New Roman,serif" font-size="14.00">&#45; &#160;&#160;clockComponent: ClockComponent [0..1]</text>
<text text-anchor="start" x="310" y="-1392" font-family="Times New Roman,serif" font-size="14.00">&#45; &#160;&#160;clockPaint: ClockPaint [0..1]</text>
<text text-anchor="start" x="310" y="-1368" font-family="Times New Roman,serif" font-size="14.00"># &#160;&#160;color: ColorPicker [0..1]</text>
<text text-anchor="start" x="310" y="-1344" font-family="Times New Roman,serif" font-size="14.00">&#45; &#160;&#160;imageComponentPane: ImagePane [0..1]</text>
<text text-anchor="start" x="310" y="-1320" font-family="Times New Roman,serif" font-size="14.00"># &#160;&#160;textField: TextField [0..1]</text>
<text text-anchor="start" x="310" y="-1296" font-family="Times New Roman,serif" font-size="14.00">&#45; &#160;&#160;timeServer: TimeServer [0..1]</text>
<text text-anchor="start" x="309.79" y="-1272" font-family="Times New Roman,serif" font-size="14.00">+ initialize(url: URL, resourceBundle: ResourceBundle)</text>
<polygon fill="black" stroke="black" points="305,-1504.6 305,-1504.6 630,-1504.6 630,-1504.6 305,-1504.6"/>
<polygon fill="black" stroke="black" points="305,-1288.6 305,-1288.6 630,-1288.6 630,-1288.6 305,-1288.6"/>
<polygon fill="none" stroke="black" points="304.5,-1263.6 304.5,-1529.6 629.5,-1529.6 629.5,-1263.6 304.5,-1263.6"/>
</g>
<!-- HelloController2039717799&#45;&gt;ImagePane1297528322 -->
<g id="edge4" class="edge">
<title>HelloController2039717799&#45;&gt;ImagePane1297528322</title>
<path fill="none" stroke="black" d="M304.49,-1291.59C230.1,-1243.99 158.25,-1198 158.25,-1198 158.25,-1198 158.25,-939.2 158.25,-939.2 158.25,-939.2 201,-887.6 201,-887.6 201,-887.6 208.19,-877.88 219.09,-863.17"/>
<polygon fill="black" stroke="black" points="221.97,-865.16 225.1,-855.04 216.34,-861 221.97,-865.16"/>
<text text-anchor="middle" x="221.38" y="-1060.4" font-family="Times New Roman,serif" font-size="14.00">imageComponentPane</text>
<text text-anchor="middle" x="221.38" y="-1043.6" font-family="Times New Roman,serif" font-size="14.00">[0..1]</text>
</g>
<!-- TimeServer480026252 -->
<g id="node4" class="node">
<title>TimeServer480026252</title>
<polygon fill="#ffffff" stroke="transparent" points="505,-1165.2 297,-1165.2 297,-947.2 505,-947.2 505,-1165.2"/>
<text text-anchor="start" x="302" y="-1147.6" font-family="Times New Roman,serif" font-size="14.00">(C)TimeServer</text>
<text text-anchor="start" x="302" y="-1123.6" font-family="Times New Roman,serif" font-size="14.00">&#45; &#160;&#160;currentDate: Date [0..1]</text>
<text text-anchor="start" x="301.56" y="-1099.6" font-family="Times New Roman,serif" font-size="14.00">&#45; &#160;&#160;observers: List&lt;Observer&gt; [0..*]</text>
<text text-anchor="start" x="302" y="-1075.6" font-family="Times New Roman,serif" font-size="14.00">&#45; &#160;&#160;task: TimerTask [0..1]</text>
<text text-anchor="start" x="302" y="-1051.6" font-family="Times New Roman,serif" font-size="14.00">&#45; &#160;&#160;timer: Timer [0..1]</text>
<text text-anchor="start" x="302" y="-1027.6" font-family="Times New Roman,serif" font-size="14.00">+ attach(obs: Observer)</text>
<text text-anchor="start" x="302" y="-1003.6" font-family="Times New Roman,serif" font-size="14.00">+ detach(obs: Observer)</text>
<text text-anchor="start" x="302" y="-979.6" font-family="Times New Roman,serif" font-size="14.00">+ notifyAllObserver()</text>
<text text-anchor="start" x="302" y="-955.6" font-family="Times New Roman,serif" font-size="14.00">&#45; tick()</text>
<polygon fill="black" stroke="black" points="297,-1140.2 297,-1140.2 505,-1140.2 505,-1140.2 297,-1140.2"/>
<polygon fill="black" stroke="black" points="297,-1044.2 297,-1044.2 505,-1044.2 505,-1044.2 297,-1044.2"/>
<polygon fill="none" stroke="black" points="297,-947.2 297,-1165.2 505,-1165.2 505,-947.2 297,-947.2"/>
</g>
<!-- HelloController2039717799&#45;&gt;TimeServer480026252 -->
<g id="edge5" class="edge">
<title>HelloController2039717799&#45;&gt;TimeServer480026252</title>
<path fill="none" stroke="black" d="M441.2,-1263.31C435.54,-1234.29 429.58,-1203.75 424.04,-1175.33"/>
<polygon fill="black" stroke="black" points="427.45,-1174.52 422.1,-1165.37 420.58,-1175.86 427.45,-1174.52"/>
<text text-anchor="middle" x="465.71" y="-1227" font-family="Times New Roman,serif" font-size="14.00">timeServer</text>
<text text-anchor="middle" x="465.71" y="-1210.2" font-family="Times New Roman,serif" font-size="14.00">[0..1]</text>
</g>
<!-- HelloController2039717799&#45;&gt;ClockComponent901924444 -->
<g id="edge2" class="edge">
<title>HelloController2039717799&#45;&gt;ClockComponent901924444</title>
<path fill="none" stroke="black" d="M500.42,-1263.52C509.56,-1227.4 517,-1198 517,-1198 517,-1198 517,-939.2 517,-939.2 517,-939.2 445,-580.8 445,-580.8 445,-580.8 385,-529.2 385,-529.2 385,-529.2 357.57,-484.3 333.7,-445.21"/>
<polygon fill="black" stroke="black" points="336.56,-443.17 328.36,-436.46 330.58,-446.82 336.56,-443.17"/>
<text text-anchor="middle" x="561.83" y="-916.6" font-family="Times New Roman,serif" font-size="14.00">clockComponent</text>
<text text-anchor="middle" x="561.83" y="-899.8" font-family="Times New Roman,serif" font-size="14.00">[0..1]</text>
</g>
<!-- HelloController2039717799&#45;&gt;ClockPaint901924444 -->
<g id="edge3" class="edge">
<title>HelloController2039717799&#45;&gt;ClockPaint901924444</title>
<path fill="none" stroke="black" d="M515.34,-1263.29C520.55,-1249.05 524,-1239.6 524,-1239.6 524,-1239.6 614,-929.2 614,-929.2 614,-929.2 670.56,-665.52 704.69,-506.39"/>
<polygon fill="black" stroke="black" points="708.13,-507.05 706.8,-496.54 701.28,-505.58 708.13,-507.05"/>
<text text-anchor="middle" x="649.55" y="-916.6" font-family="Times New Roman,serif" font-size="14.00">clockPaint</text>
<text text-anchor="middle" x="649.55" y="-899.8" font-family="Times New Roman,serif" font-size="14.00">[0..1]</text>
</g>
<!-- TimeServer480026252&#45;&gt;ImagePane1297528322 -->
<g id="edge10" class="edge">
<title>TimeServer480026252&#45;&gt;ImagePane1297528322</title>
<path fill="none" stroke="black" d="M375.57,-946.82C368.68,-917.45 361.14,-885.34 353.98,-854.83"/>
<text text-anchor="middle" x="397.82" y="-916.6" font-family="Times New Roman,serif" font-size="14.00">observers</text>
<text text-anchor="middle" x="397.82" y="-899.8" font-family="Times New Roman,serif" font-size="14.00">[0..*]</text>
</g>
<!-- Builder75249391 -->
<g id="node5" class="node">
<title>Builder75249391</title>
<polygon fill="#f1e5fd" stroke="transparent" points="186,-794.8 40,-794.8 40,-648.8 186,-648.8 186,-794.8"/>
<text text-anchor="start" x="45" y="-777.2" font-family="Times New Roman,serif" font-size="14.00">(I)Builder</text>
<text text-anchor="start" x="45" y="-753.2" font-family="Times New Roman,serif" font-size="14.00">+ build(): ImageText</text>
<text text-anchor="start" x="44.9" y="-729.2" font-family="Times New Roman,serif" font-size="14.00">+ setColor(color: Color)</text>
<text text-anchor="start" x="45" y="-705.2" font-family="Times New Roman,serif" font-size="14.00">+ setDesign()</text>
<text text-anchor="start" x="45" y="-681.2" font-family="Times New Roman,serif" font-size="14.00">+ setImage()</text>
<text text-anchor="start" x="45" y="-657.2" font-family="Times New Roman,serif" font-size="14.00">+ setText(text: String)</text>
<polygon fill="black" stroke="black" points="40,-769.8 40,-769.8 186,-769.8 186,-769.8 40,-769.8"/>
<polygon fill="none" stroke="black" points="40,-648.8 40,-794.8 186,-794.8 186,-648.8 40,-648.8"/>
</g>
<!-- Builder75249391&#45;&gt;ImageBuilder75249391 -->
<g id="edge1" class="edge">
<title>Builder75249391&#45;&gt;ImageBuilder75249391</title>
<path fill="none" stroke="black" d="M113,-638.64C113,-579.7 113,-501.6 113,-448.44"/>
<polygon fill="none" stroke="black" points="109.5,-638.67 113,-648.67 116.5,-638.67 109.5,-638.67"/>
</g>
<!-- ImageBuilder75249391&#45;&gt;ImageText104069929 -->
<g id="edge6" class="edge">
<title>ImageBuilder75249391&#45;&gt;ImageText104069929</title>
<path fill="none" stroke="black" d="M113,-326.09C113,-288.42 113,-239.14 113,-196.38"/>
<polygon fill="black" stroke="black" points="116.5,-196.23 113,-186.23 109.5,-196.23 116.5,-196.23"/>
<text text-anchor="middle" x="128.16" y="-247.8" font-family="Times New Roman,serif" font-size="14.00">img</text>
<text text-anchor="middle" x="128.16" y="-231" font-family="Times New Roman,serif" font-size="14.00">[0..1]</text>
</g>
</g>
</svg>
